<?xml version="1.0" encoding="UTF-8"?>
<svg version="1.1" viewBox="0 0 1600 1600" width="1280" height="1280" xmlns="http://www.w3.org/2000/svg">
<path transform="translate(781 -.238)" d="m0 0c0.708-0.00484 1.42-0.00969 2.15-0.0147 5.36-0.0361 10.7-0.0523 16.1-0.0595 0.791-0.0013 1.58-0.0026 2.4-0.00393 25.7-0.0319 50.9 0.861 76.4 4.02 3.4 0.413 6.8 0.793 10.2 1.18 77.9 8.8 154 28.2 306 98.7 2.25 1.32 4.51 2.63 6.77 3.94 24.4 14.1 47.9 29.7 70.6 46.4l3.15 2.32c2.97 2.21 5.91 4.43 8.85 6.68 0.67 0.511 1.34 1.02 2.03 1.55 9.16 7 18.1 14.2 26.8 21.7 2.81 2.44 5.69 4.78 8.59 7.1 6.43 5.22 12.4 10.9 18.4 16.6 2.54 2.37 5.11 4.69 7.68 7.02 6.78 6.18 13.3 12.6 19.8 19.1 1.99 1.99 3.99 3.96 5.98 5.94 1.27 1.26 2.53 2.53 3.8 3.79 0.597 0.59 1.19 1.18 1.81 1.79 4.11 4.14 4.11 4.14 4.11 6.37h2c1.34 1.33 1.34 1.33 2.94 3.25 2.61 3.08 5.28 6.09 8.03 9.05 4.76 5.12 9.29 10.4 13.7 15.8 2.16 2.64 4.37 5.21 6.6 7.78 6.74 7.74 13 15.8 19.2 24 1.55 2.06 3.11 4.11 4.66 6.17 28.3 37.3 52.7 77.2 73.9 119 0.674 1.31 1.35 2.62 2.02 3.93 2.05 4 4.02 8.03 5.98 12.1l1.52 3.15c8.65 18 16.5 36.1 23.5 54.9 0.455 1.2 0.909 2.39 1.38 3.62 25.8 67.9 41.3 139 48.4 211 0.221 2.22 0.449 4.44 0.678 6.66 8.93 88-0.76 179-36.5 313-1.03 3.08-2.01 6.17-2.99 9.26-15.9 49.5-37.8 98.8-64.6 143-1.49 2.48-2.95 4.97-4.42 7.46-5.58 9.45-11.4 18.7-17.6 27.8-1.61 2.39-3.2 4.78-4.79 7.18-9.73 14.7-19.8 29-30.6 42.9-0.456 0.583-0.911 1.17-1.38 1.77-2.78 3.56-5.57 7.11-8.38 10.7-1.1 1.39-2.2 2.79-3.3 4.19-4.78 6.05-9.76 11.9-14.8 17.7-2.09 2.42-4.17 4.86-6.23 7.31-5.26 6.23-10.6 12.2-16.5 17.9-1.93 1.95-3.7 3.91-5.47 5.98-4.64 5.35-9.64 10.3-14.6 15.3-1.66 1.66-3.31 3.33-4.96 5-1.05 1.06-2.11 2.12-3.17 3.17-0.493 0.5-0.985 1-1.49 1.51-3.48 3.45-3.48 3.45-5.71 3.45-0.33 0.99-0.66 1.98-1 3-1.6 1.58-1.6 1.58-3.62 3.25-2.69 2.28-5.24 4.58-7.69 7.12-3.7 3.77-7.77 7.01-11.9 10.3-2.62 2.16-5.13 4.39-7.62 6.69-4.96 4.52-10.2 8.63-15.5 12.7-3.1 2.41-6.16 4.85-9.21 7.32-13.4 10.8-27.2 20.9-41.5 30.6-0.693 0.469-1.39 0.937-2.1 1.42-5.27 3.57-10.6 7.09-15.9 10.6l-2.49 1.64c-24.6 16.1-50.2 30.2-76.5 43.4-1.68 0.845-1.68 0.845-3.4 1.71-17.9 8.91-36.1 16.8-54.6 24.3-1.73 0.699-1.73 0.699-3.5 1.41-32.9 13.1-66.8 24-101 32.1-2.35 0.551-4.69 1.11-7.04 1.67-34.9 8.28-70.2 13.9-106 17.7-1.4 0.149-1.4 0.149-2.83 0.301-6.51 0.685-13 1.31-19.5 1.89-1.04 0.0932-2.08 0.186-3.15 0.283-17.2 1.51-34.3 2.08-51.6 2.03-1.23-0.00182-2.47-0.00365-3.74-0.00552-20.8-0.0513-41.3-0.918-62-3.05-2.67-0.273-5.34-0.534-8.01-0.793-82.7-8.07-164-26.6-286-80.5-1.54-0.749-1.54-0.749-3.11-1.51-14.3-6.97-28.2-14.4-41.9-22.5l-2.58-1.52c-27.3-16.1-53.8-33.8-78.8-53.2-1.61-1.25-3.23-2.48-4.85-3.71-6.72-5.1-13.2-10.4-19.6-15.9-2.9-2.48-5.85-4.89-8.82-7.29-4.45-3.62-8.73-7.39-13-11.3-2.13-1.93-4.29-3.81-6.46-5.68-3.37-2.93-6.52-6.04-9.62-9.25-1.87-1.82-3.77-3.51-5.75-5.2-5.2-4.52-10.1-9.37-14.9-14.2-1.59-1.59-3.19-3.17-4.78-4.75-1.01-1.01-2.02-2.02-3.04-3.03-1.37-1.36-1.37-1.36-2.77-2.75-1.98-2.23-1.98-2.23-1.98-4.23-0.99-0.33-1.98-0.66-3-1-1.58-1.6-1.58-1.6-3.25-3.62-2.28-2.69-4.58-5.24-7.12-7.69-3.74-3.68-6.96-7.72-10.2-11.8-2.33-2.82-4.76-5.51-7.25-8.19-5.25-5.71-9.99-11.7-14.7-17.9-1.84-2.38-3.71-4.74-5.57-7.11-1.84-2.34-3.68-4.68-5.51-7.02-1.24-1.58-2.49-3.16-3.74-4.74-42.9-54.8-78.7-118-104-183-1.15-2.98-2.32-5.95-3.49-8.92-27-68.9-43-141-50.3-215-0.216-2.13-0.445-4.26-0.678-6.38-5.2-48.2-4.47-98.1 1.16-146 0.299-2.57 0.584-5.15 0.865-7.73 9.17-83.6 30.9-165 65.1-242 0.35-0.791 0.7-1.58 1.06-2.4 4.4-9.91 9.12-19.6 14.3-29.1 1.99-3.68 3.83-7.41 5.65-11.2 8.9-18 19-35.5 29.9-52.4 1.5-2.33 2.97-4.69 4.44-7.04 6.19-9.95 12.7-19.6 19.5-29.1 1.51-2.11 2.99-4.24 4.46-6.37 5.97-8.63 12.3-16.9 18.9-25 2.79-3.38 5.45-6.84 8.09-10.3 5.17-6.78 10.8-13.2 16.4-19.6 2.06-2.36 4.08-4.74 6.1-7.13 8.81-10.4 18-20.4 27.8-29.9 2.52-2.58 4.81-5.33 7.1-8.11 1.75-1.78 3.36-2.68 5.64-3.66v-2c1.36-1.34 1.36-1.34 3.31-2.94 3.58-3.03 6.9-6.22 10.2-9.56 3.7-3.75 7.48-7.34 11.5-10.8 2.32-1.99 4.57-4.05 6.83-6.11 4.32-3.89 8.76-7.59 13.3-11.2 2.58-2.11 5.12-4.25 7.65-6.42 6.33-5.41 12.8-10.6 19.5-15.6 1.95-1.49 3.9-2.99 5.84-4.5 9.43-7.31 19.1-14.2 29-20.9l2.73-1.84c70-47.1 144-83 225-107 0.673-0.202 1.35-0.405 2.04-0.613 65.5-19.7 137-31.3 205-31.6zm-1.65 93.3c-66.5 1.02-134 13.1-197 34-1.28 0.419-2.56 0.838-3.84 1.26-30.3 9.93-59.5 21.9-88.2 35.7-0.981 0.471-1.96 0.943-2.97 1.43-14.4 6.93-28.2 14.6-42 22.6-0.816 0.47-1.63 0.939-2.47 1.42-27.2 15.7-53.3 33.6-77.8 53.2-1.77 1.4-3.54 2.78-5.33 4.16-6.2 4.81-12.2 9.71-18 15-2.44 2.19-4.96 4.24-7.53 6.28-13.5 11-25.6 23.5-37.9 35.8-1.03 1.02-1.03 1.02-2.07 2.07-10.2 10.2-10.2 10.2-19.9 21-1.5 1.67-3 3.34-4.5 5-1.5 1.67-3 3.33-4.5 5-0.552 0.611-1.1 1.22-1.67 1.85-14.9 16.8-28.3 34.9-41.3 53.1-0.589 0.825-1.18 1.65-1.78 2.5-7.79 10.9-15.3 22-22.2 33.5-0.756 1.26-0.756 1.26-1.53 2.54-16.7 27.9-32.8 56.5-45.5 86.5-0.476 1.13-0.952 2.25-1.44 3.41-28.7 68.2-46.9 139-54.6 213l-0.343 3.3c-2.95 29.6-3.08 59.5-1.84 89.2 0.0409 0.995 0.0818 1.99 0.124 3.01 1.05 24.6 3.24 49 6.69 73.4 0.174 1.24 0.347 2.48 0.526 3.76 2.67 18.9 6.07 37.4 11 55.9 0.844 3.26 1.61 6.53 2.34 9.82 3.91 17.5 9.29 34.5 14.9 51.5 0.645 1.98 1.28 3.96 1.92 5.94 6.15 19.1 13.8 37.3 22.1 55.5 1.75 3.85 3.45 7.72 5.14 11.6 9.2 21 20.4 41.1 31.7 61.1 0.657 1.17 0.657 1.17 1.33 2.37 3.64 6.38 7.69 12.5 11.8 18.5 2.71 4.02 5.37 8.08 8.03 12.1 13.3 20.3 13.3 20.3 28.3 39.2 2.38 2.81 4.63 5.72 6.89 8.63 6.05 7.76 12.3 15.4 18.5 23 0.99-0.33 1.98-0.66 3-1 0.93-2.2 0.93-2.2 1.52-4.96 0.273-1.09 0.547-2.18 0.829-3.3 0.299-1.21 0.598-2.43 0.906-3.67 9.73-37.1 23.8-74.1 42.4-108 1.51-2.75 2.98-5.52 4.44-8.29 6.03-11.4 12.3-22.4 19.5-33.1 1.43-2.13 2.84-4.28 4.24-6.43 12.4-18.9 25.7-37.6 41-54.2 2.24-2.5 4.33-5.09 6.41-7.73 4.18-5.2 8.78-9.84 13.6-14.4 1.42-1.38 2.8-2.8 4.17-4.24v-2c0.99-0.33 1.98-0.66 3-1 2.21-1.88 2.21-1.88 4-4v-2c0.99-0.33 1.98-0.66 3-1v-2l1.75-0.746c2.62-1.46 4.26-3.14 6.32-5.32 4.08-4.17 8.37-7.84 12.9-11.5 3.4-2.75 6.71-5.59 10-8.45 10.3-8.87 20.8-17.2 32-25 0.657-0.457 1.31-0.914 1.99-1.38 17.1-11.9 34.2-23.3 52.6-33 1.24-0.659 2.49-1.32 3.73-1.98 1.86-0.984 3.71-1.97 5.57-2.95 3.33-1.76 6.63-3.55 9.91-5.4 13.6-7.58 28.1-13.2 42.6-19 4.92-1.98 9.77-4.08 14.6-6.28-1.85-4.09-4.13-5.88-7.75-8.56-1.18-0.885-2.36-1.77-3.54-2.66-0.611-0.456-1.22-0.913-1.85-1.38-3.04-2.29-6.05-4.62-9.05-6.96-0.799-0.615-0.799-0.615-1.61-1.24-9.2-7.18-17.5-15.3-25.8-23.6-1.56-1.55-3.12-3.1-4.69-4.65-6.03-6-11.5-12.2-16.7-19-1-1.22-2.01-2.45-3.02-3.66-6.85-8.3-12.9-16.9-18.5-26-1.49-2.37-3.03-4.72-4.57-7.06-9.15-14.1-16.2-28.9-22.9-44.2l-1-2.25c-8.95-20.3-15-42-19-63.7-0.184-0.969-0.368-1.94-0.558-2.94-12.7-67.9-4.75-139 24.6-202 0.921-1.99 1.8-4 2.66-6.02 8.25-18.9 19.9-36.6 32.3-53 0.721-0.993 1.44-1.99 2.18-3.01 13-17.7 28.1-34.8 44.8-49 0.933-0.821 1.87-1.64 2.83-2.49 14.9-13.1 31.2-24.2 48.2-34.5 0.757-0.465 1.51-0.93 2.29-1.41 74.1-45.4 167-56.4 251-36.3 25.4 6.42 49.6 15.6 72.9 27.7 0.903 0.469 1.81 0.939 2.74 1.42 15.5 8.15 30.4 17.2 44.2 28.1 2.1 1.66 4.2 3.29 6.34 4.88 7.51 5.61 14.4 11.7 21.2 18.1 1.51 1.41 3.03 2.79 4.57 4.16 4.71 4.19 9.16 8.38 13.2 13.2 1.26 1.48 2.56 2.91 3.9 4.32 12.5 13.2 23.2 28.4 32.9 43.8 0.481 0.764 0.962 1.53 1.46 2.31 26.5 42.4 42.8 89 48.5 139 0.174 1.44 0.174 1.44 0.351 2.91 5.81 49.8-0.485 101-17.4 148-0.608 1.77-1.22 3.54-1.82 5.3-7.86 22.2-18.6 44.2-31.8 63.7-1.32 1.96-2.59 3.93-3.86 5.92-5.68 8.86-12.1 17-18.8 25.1-1.13 1.38-2.23 2.78-3.31 4.19-5.83 7.6-12.5 14.3-19.3 21-2.01 2-4.01 4.01-6.01 6.02-6.38 6.39-12.7 12.5-20.1 17.8-1.14 0.882-2.27 1.77-3.41 2.66-6.05 4.69-12.1 9.23-18.6 13.3 0.703 3.27 0.703 3.27 3.86 4.5 1.27 0.536 2.55 1.06 3.83 1.58 0.682 0.285 1.36 0.57 2.07 0.863 1.46 0.61 2.93 1.21 4.4 1.81 2.29 0.939 4.58 1.89 6.87 2.85 2.99 1.25 5.99 2.5 8.99 3.74 28.5 11.8 55.2 26.9 81 43.7l1.97 1.27c25.9 16.7 49.9 36.3 72.5 57.3 1.63 1.51 3.28 3 4.93 4.49 5.29 4.8 10.4 9.55 15 15 2.51 2.9 5.27 5.55 8.03 8.22 1.6 1.66 1.6 1.66 2.6 3.66h2c0.358 0.839 0.358 0.839 0.723 1.7 1.56 2.82 3.49 4.84 5.71 7.18 4.9 5.26 9.33 10.8 13.7 16.5 1.88 2.43 3.8 4.83 5.75 7.21 7.99 9.74 15.1 19.9 22.1 30.4 0.413 0.622 0.827 1.24 1.25 1.89 34.9 52.7 59.6 110 75.7 171 3.51-0.563 4.89-1.61 7.1-4.36 0.567-0.697 1.13-1.39 1.72-2.11 0.595-0.752 1.19-1.5 1.8-2.28 0.622-0.771 1.24-1.54 1.88-2.34 4.44-5.53 8.79-11.1 13.1-16.8 1.65-2.16 3.31-4.29 5.02-6.4 6.89-8.56 13.2-17.4 19.3-26.6 1.57-2.35 3.14-4.69 4.73-7.04 11.9-17.6 23.1-35.1 32.8-54 1.68-3.24 3.43-6.45 5.19-9.65 7.23-13.2 14-26.4 20-40.2 1.28-2.91 2.57-5.81 3.87-8.71 10.1-22.5 18.1-45.7 25.8-69.1 0.774-2.37 1.56-4.73 2.35-7.09 4.47-13.5 7.76-27.3 11-41.1 0.284-1.23 0.569-2.45 0.862-3.72 4.78-20.7 8.65-41.3 11.4-62.4 0.278-2.12 0.57-4.24 0.868-6.36 10-71 7.76-144-4.59-215-0.119-0.68-0.238-1.36-0.36-2.06-5.36-30.4-12.9-60.6-22.6-89.9-0.203-0.616-0.406-1.23-0.615-1.87-11.1-33.7-24.1-66.7-40.4-98.2-1.09-2.16-2.15-4.33-3.2-6.5-15-30.8-33.6-60.1-53.6-87.8-1.04-1.44-2.06-2.88-3.09-4.32-12.6-17.6-26-34.9-40.7-50.7-3.36-3.73-6.45-7.65-9.55-11.6-0.897-1-0.897-1-1.81-2.02h-2c-0.385-0.872-0.385-0.872-0.779-1.76-1.33-2.44-2.8-4.07-4.76-6.04-1.09-1.1-1.09-1.1-2.2-2.22-0.786-0.782-1.57-1.56-2.38-2.37-0.815-0.816-1.63-1.63-2.47-2.47-1.73-1.73-3.46-3.46-5.19-5.18-2.62-2.61-5.23-5.23-7.84-7.85-7.48-7.49-14.9-14.9-23.2-21.4-3-2.36-5.71-4.93-8.47-7.57-5.96-5.6-12.2-10.7-18.7-15.6-2.13-1.64-4.24-3.29-6.35-4.95-8.41-6.61-16.9-13.1-25.7-19.2-2.22-1.56-4.43-3.13-6.63-4.71-10.2-7.27-20.6-14.1-31.4-20.5-2.74-1.64-5.44-3.35-8.15-5.05-25.8-15.8-52.9-30.4-80.8-42.1-1.73-0.728-1.73-0.728-3.5-1.47-18.6-7.79-37.4-15-56.5-21.5-0.907-0.311-1.81-0.622-2.75-0.942-77.5-26.3-159-36-240-35zm-21.8 266-2.48 0.438c-40.6 7.34-77.7 25.4-110 51.3-1.7 1.37-3.42 2.7-5.2 3.96-0.801 0.652-0.801 0.652-1.62 1.32v2c-0.582 0.257-1.16 0.514-1.76 0.78-2.44 1.33-4.07 2.79-6.03 4.75-0.708 0.704-1.42 1.41-2.15 2.13-0.742 0.752-1.48 1.5-2.25 2.28-0.767 0.774-1.53 1.55-2.32 2.35-5.54 5.64-10.7 11.4-15.5 17.7-0.479 0.629-0.957 1.26-1.45 1.91-8.47 11.2-15.9 22.8-22.5 35.1-0.37 0.677-0.739 1.35-1.12 2.05-18.6 34.4-27.1 72.8-27.1 112-6.75e-4 0.817-0.00135 1.63-0.00204 2.47 0.0176 13.4 0.769 26.5 3.25 39.7 0.166 0.923 0.333 1.85 0.504 2.8 4.14 22.4 11.5 43.7 21.5 64.2 0.324 0.668 0.649 1.34 0.983 2.02 11.5 23.3 27.7 43.7 46 62 0.755 0.779 1.51 1.56 2.29 2.36 5.89 6.03 12 11.5 18.7 16.6 0.618 0.478 1.24 0.956 1.87 1.45 50.7 38.9 114 55.5 177 48.6 0.842-0.0927 1.68-0.185 2.55-0.281 28.1-3.32 55.5-12.4 80.4-25.7 0.712-0.374 1.42-0.747 2.16-1.13 11.6-6.1 22.3-13 32.8-20.9 0.91-0.675 1.82-1.35 2.76-2.05 7.89-6.09 15-13.1 22.2-20 0.946-0.904 1.89-1.81 2.87-2.74 5.86-5.73 11.1-11.8 16.1-18.3 0.516-0.661 1.03-1.32 1.56-2 13.4-17.3 24.3-35.7 32.4-56 0.302-0.749 0.605-1.5 0.917-2.27 11.6-29.1 17.3-59.2 17.3-90.5 6.75e-4 -0.718 0.00135-1.44 0.00204-2.18-0.0195-13.2-0.955-26-3.25-39-0.166-0.945-0.333-1.89-0.504-2.86-6.93-37.8-23-73.7-46.5-104-0.648-0.844-1.3-1.69-1.96-2.56-11.4-14.6-24.5-28-39-39.4-0.938-0.767-1.88-1.53-2.84-2.32-42.4-34-96-50.9-150-50.9-0.768-0.00101-1.54-0.00201-2.33-0.00305-13.2 0.0116-25.9 0.887-38.9 3.25zm-115 607c-0.96 0.349-1.92 0.698-2.91 1.06-28.5 10.5-56.6 24.4-82.1 40.9-0.904 0.584-1.81 1.17-2.74 1.77-3.11 2.04-6.19 4.13-9.26 6.23-0.726 0.492-1.45 0.985-2.2 1.49-11.5 7.8-22.4 16-33 25-2.62 2.2-5.29 4.34-7.96 6.48-3.58 2.92-6.9 5.96-10.1 9.29-1.74 1.74-3.54 3.33-5.42 4.93-4.68 4.06-9.05 8.39-13.4 12.8-0.764 0.76-1.53 1.52-2.31 2.3-4.75 4.76-9.26 9.65-13.6 14.8-0.461 0.534-0.922 1.07-1.4 1.62-12 13.9-23 28.4-33.6 43.4-0.437 0.619-0.873 1.24-1.32 1.88-8.33 11.9-15.5 24.5-22.7 37.1-0.421 0.739-0.843 1.48-1.28 2.24-23.7 42-39.9 89.9-47.3 137-0.387 2.41-0.821 4.81-1.27 7.21-0.144 0.78-0.289 1.56-0.438 2.36-0.266 1.43-0.535 2.87-0.806 4.3-1.04 5.7-1.04 5.7-0.862 11.4 1.97 2.37 1.97 2.37 4.75 4.31l3.07 2.35c1.05 0.771 2.1 1.54 3.18 2.34l2.77 2.09c1.94 1.46 3.88 2.91 5.83 4.35 2.51 1.87 4.97 3.8 7.42 5.75 11.3 8.94 22.9 17 35 24.8 1.04 0.674 2.09 1.35 3.16 2.04 7.26 4.69 14.5 9.35 21.8 14 1.05 0.661 2.1 1.32 3.17 2 7.54 4.7 15.2 9.03 23.1 13.2 1.24 0.655 2.47 1.31 3.71 1.97 1.89 0.999 3.77 2 5.66 2.99 3.74 1.98 7.46 4 11.2 6.05 27 14.8 56.4 27 85.6 36.6 2.72 0.899 5.43 1.81 8.13 2.73 21.4 7.26 42.8 13.6 64.8 18.6 0.978 0.222 1.96 0.444 2.96 0.673 94.8 21.3 193 23.5 312 0.665 2.07-0.47 4.15-0.924 6.22-1.37 40.9-8.87 80.7-22.3 119-39.4 3.5-1.55 7.02-3.05 10.6-4.52 11.2-4.67 21.8-9.99 32.4-15.9 4.41-2.46 8.87-4.81 13.4-7.1 0.639-0.327 1.28-0.653 1.94-0.99 2.54-1.29 5.07-2.59 7.62-3.87 7.35-3.69 14.3-7.65 21.1-12.3 3.03-2.07 6.09-4.06 9.18-6.03 1.04-0.66 2.07-1.32 3.14-2 2.1-1.33 4.19-2.67 6.29-4 10.8-6.87 21.4-13.8 31.5-21.6 1.34-1.03 1.34-1.03 2.7-2.07 6.74-5.17 13.4-10.4 20.1-15.6 0.679-0.53 1.36-1.06 2.06-1.61 0.65-0.516 1.3-1.03 1.97-1.56 2.01-1.52 2.01-1.52 4.3-3 2.11-1.39 3.95-2.7 5.71-4.52 0.722-3.41 0.722-3.41-0.188-7.12-0.123-0.722-0.246-1.44-0.373-2.19-0.286-1.65-0.592-3.29-0.913-4.93-0.572-3-1.05-6-1.52-9.01-6.22-38.6-17.9-76.2-34-112-0.416-0.922-0.832-1.84-1.26-2.79-8.86-19.5-19.1-38.3-30.7-56.2-0.458-0.711-0.917-1.42-1.39-2.15-6.9-10.7-14.2-20.9-22.1-30.9-1.43-1.84-2.84-3.69-4.24-5.54-6.31-8.32-13.3-15.9-20.5-23.4-3.18-3.32-6.22-6.75-9.23-10.2-5-5.7-10.5-10.9-16.3-15.8-2.3-2.02-4.53-4.1-6.76-6.2-7.17-6.73-14.7-12.8-22.5-18.8-0.963-0.736-1.93-1.47-2.92-2.23-2.46-1.86-4.93-3.7-7.42-5.53-1.78-1.32-3.53-2.67-5.29-4.02-19.5-14.8-41.4-27.5-63.4-38.2-0.919-0.46-1.84-0.919-2.78-1.39-44-21.9-91.5-35.4-140-41.6-1.25-0.172-2.5-0.345-3.79-0.522-9.46-1.27-18.9-2-28.4-2.48-2.37-0.12-4.75-0.25-7.12-0.381-60.2-3.23-120 6.8-177 27.4z" fill="#000100"/>
</svg>
