<?xml version="1.0" encoding="UTF-8"?>
<svg version="1.1" viewBox="0 0 1600 1600" width="1280" height="1280" xmlns="http://www.w3.org/2000/svg">
<path transform="translate(902,258)" d="m0 0c1.39 0.53 1.39 0.53 2.8 1.07 45.3 17.5 87.9 41 126 70.9 1.24 0.954 2.48 1.91 3.72 2.86 7.04 5.43 13.7 11.1 20.3 17.1 1.29 1.13 2.58 2.25 3.88 3.38 8.76 7.67 17.2 15.6 25.4 23.8 0.753 0.748 1.51 1.5 2.28 2.27 4.12 4.14 8.08 8.36 11.9 12.8 1.87 2.17 3.82 4.27 5.77 6.38 5.04 5.59 9.66 11.5 14.2 17.4 1.56 2.03 3.13 4.04 4.71 6.06 11.9 15.4 22.6 31.4 32.8 47.9 0.421 0.675 0.841 1.35 1.27 2.04 5.45 8.76 10.3 17.7 14.8 27 0.916 1.86 1.86 3.71 2.82 5.55 28.8 55.5 44.5 117 50.1 179 0.146 1.58 0.146 1.58 0.294 3.19 1.02 12.9 0.949 25.8 0.956 38.7 0.00101 1.87 0.00101 1.87 0.00204 3.78-0.0169 19.6-0.65 38.9-3.25 58.3-0.179 1.37-0.357 2.75-0.536 4.12-8.88 67.3-31 133-66.5 191-0.478 0.784-0.956 1.57-1.45 2.38-12.7 20.6-26.7 40.6-42.5 59-0.501 0.585-1 1.17-1.52 1.77-0.989 1.15-1.98 2.3-2.98 3.44-2.12 2.46-3.56 4.27-4.59 7.38h2c1.38 1.4 1.38 1.4 3.01 3.38 4.34 5.09 9.02 9.79 13.8 14.5 0.976 0.977 1.95 1.95 2.93 2.93 2.66 2.67 5.33 5.33 8 7.99 2.88 2.88 5.76 5.76 8.64 8.64 4.99 4.99 9.97 9.97 15 15 7.22 7.21 14.4 14.4 21.6 21.6 11.7 11.7 23.4 23.4 35.1 35.1 11.4 11.4 22.7 22.7 34.1 34.1 0.7 0.7 1.4 1.4 2.12 2.12 3.51 3.51 7.03 7.03 10.5 10.5 24.2 24.2 48.4 48.4 72.6 72.6 0.516 0.516 1.03 1.03 1.56 1.56 2.39 2.39 4.78 4.77 7.17 7.16 0.828 0.827 1.66 1.65 2.51 2.51 0.753 0.752 1.51 1.5 2.28 2.28 1.67 1.67 3.33 3.33 5 5 1.61 1.61 3.25 3.2 4.91 4.76 9.25 8.86 16.7 17.5 17.2 30.8-0.332 9.26-4.17 17.6-10.5 24.4-8.09 7.36-17 8.57-27.6 8.33-14.5-0.816-25.3-15.5-34.9-25.1-1.05-1.06-2.11-2.11-3.16-3.17-2.27-2.28-4.54-4.56-6.81-6.84-3.69-3.71-7.39-7.42-11.1-11.1-4.67-4.69-9.34-9.38-14-14.1-9.17-9.2-18.3-18.4-27.5-27.6-1.45-1.45-2.89-2.9-4.34-4.35-2.19-2.2-4.38-4.39-6.57-6.59-8.24-8.26-16.5-16.5-24.7-24.8-0.753-0.755-1.51-1.51-2.28-2.29-12.2-12.3-24.5-24.5-36.7-36.8-12.6-12.6-25.1-25.2-37.7-37.8-7.75-7.76-15.5-15.5-23.2-23.3-5.29-5.32-10.6-10.6-15.9-15.9-3.07-3.06-6.13-6.13-9.18-9.21-2.79-2.81-5.59-5.62-8.4-8.41-1.02-1.02-2.03-2.04-3.04-3.06-1.36-1.39-2.75-2.75-4.13-4.12-0.765-0.767-1.53-1.53-2.32-2.32-1.97-1.72-1.97-1.72-4.2-1.38-3.24 1.5-5.72 3.96-8.35 6.32-6.64 5.82-13.5 11.3-20.6 16.6-0.675 0.501-1.35 1-2.05 1.52-70 51.8-152 83.8-238 94.5-1.22 0.154-2.45 0.308-3.71 0.466-38.6 4.65-78.8 4.69-117-0.466-1.3-0.172-2.61-0.343-3.95-0.52-92.3-12.4-180-50-272-128-2.63-2.45-5.32-4.85-8.02-7.23-4.15-3.73-8.16-7.58-12.1-11.5-0.581-0.568-1.16-1.14-1.76-1.72-1.41-1.41-2.77-2.87-4.11-4.34v-2h-2c-1.41-1.4-1.41-1.4-3.06-3.38-2.67-3.15-5.39-6.22-8.19-9.25-5.08-5.63-9.71-11.6-14.3-17.6-1.37-1.76-2.77-3.51-4.17-5.25-6.86-8.56-13.2-17.4-19.2-26.6-0.513-0.766-1.03-1.53-1.56-2.32-8.4-12.6-16.2-25.4-23.4-38.7-0.74-1.34-0.74-1.34-1.5-2.71-8.57-15.7-15.8-31.8-22.5-48.3l-1.35-3.29c-19.3-47.3-29.7-97.8-33.6-149-0.0706-0.894-0.141-1.79-0.214-2.71-6.47-86.5 11.9-175 79.2-304 0.695-1.09 1.39-2.19 2.11-3.31 9.55-14.7 20.3-28.5 31.5-42 1.25-1.52 2.47-3.05 3.7-4.59 9.91-12.4 21.2-23.7 32.4-35 1.03-1.04 2.06-2.08 3.09-3.13 5.96-6.04 12.1-11.7 18.7-17 2.68-2.17 5.18-4.48 7.69-6.84 6.27-5.77 13.1-10.8 19.9-15.8 2.68-1.98 5.31-4 7.96-6.02 20.4-15.3 42.6-29 65.5-40.2 1.74-0.849 3.47-1.7 5.21-2.56 84.6-41.9 180-58.7 397-20.6zm-406 101c-0.656 0.424-1.31 0.848-1.99 1.28-4.38 2.84-8.71 5.76-13 8.72-0.865 0.593-0.865 0.593-1.75 1.2-28.6 19.7-57.9 44-79.3 71.4-1.95 2.46-4.03 4.74-6.17 7.04-23.7 26.1-42.5 57.8-57.8 89.4-0.949 1.95-1.91 3.89-2.88 5.83-38.3 78-48.4 170-16.9 324 17.2 49.4 42.9 95.8 76.8 136 0.978 1.16 1.96 2.33 2.93 3.49 4.89 5.79 9.81 11.4 15.3 16.7 2.57 2.56 4.92 5.29 7.27 8.05 1.46 1.67 2.88 3.28 4.54 4.76h2v2c1.38 1.43 1.38 1.43 3.25 2.94 3.08 2.61 6.09 5.28 9.04 8.03 58.3 54.2 134 90.6 213 104 0.801 0.145 1.6 0.29 2.43 0.439 86 15.5 180 4.07 259-34.4 0.895-0.435 1.79-0.869 2.71-1.32 31.1-15.1 60.9-33.2 87.3-55.7 1.07-0.894 2.13-1.79 3.2-2.68 10.8-9.08 21.2-18.5 31.2-28.5 1.69-1.69 3.39-3.37 5.09-5.05 6.65-6.62 12.7-13.4 18.5-20.8 0.923-1.09 1.85-2.17 2.79-3.25 17.9-20.6 32.7-43.6 45.9-67.4 1.12-2.02 2.26-4.03 3.4-6.04 23.9-43.1 38.7-92.4 45.5-141 0.284-2.05 0.582-4.09 0.896-6.13 5.96-39.5 4.58-81.6-1.46-121-0.16-1.07-0.32-2.14-0.485-3.24-0.973-6.3-2.18-12.5-3.51-18.8-0.203-0.978-0.406-1.96-0.616-2.96-13.8-65.7-43.1-128-85.4-180-0.745-0.938-1.49-1.88-2.26-2.84-5.02-6.26-10.4-12.2-15.8-18-2.53-2.71-5.01-5.47-7.47-8.25-6.7-7.46-13.7-14.6-21.4-21.1-2.39-2.07-4.68-4.24-7-6.41-6.62-6.03-13.7-11.4-20.9-16.7-2.09-1.57-4.16-3.15-6.23-4.74-9.34-7.15-19-13.7-28.9-19.9-0.585-0.372-1.17-0.743-1.77-1.13-12.9-8.19-26.6-15-40.2-21.9-1.31-0.666-1.31-0.666-2.64-1.35-57-28.8-123-40.9-186-40.8-1.2 9.06e-4 -1.2 9.06e-4 -2.42 0.00183-79.3 0.161-160 23.1-227 66.2z" fill="#000002"/>
</svg>
